<svg id="Layer_1" data-name="Layer 1" xmlns="http://www.w3.org/2000/svg" viewBox="0 0 522 522"><defs><style>.cls-1{fill:#222426;}</style></defs><path class="cls-1" d="M152.21,0C68.27,0,0,68.34,0,152.29v217.5C0,453.73,68.34,522,152.29,522h217.5C453.73,522,522,453.66,522,369.71V152.21C522,68.27,453.66,0,369.71,0Zm261,87a21.75,21.75,0,1,1-21.75,21.75A21.75,21.75,0,0,1,413.25,87ZM261,130.5A130.5,130.5,0,1,1,130.5,261,130.63,130.63,0,0,1,261,130.5Zm0,43.5a87,87,0,1,0,87,87A87,87,0,0,0,261,174Z"/></svg>