<svg id="Layer_1" data-name="Layer 1" xmlns="http://www.w3.org/2000/svg" xmlns:xlink="http://www.w3.org/1999/xlink" viewBox="0 0 522 522"><defs><style>.cls-1{fill:url(#linear-gradient);}.cls-2{fill:url(#linear-gradient-2);}.cls-3{fill:url(#linear-gradient-3);}.cls-4{fill:url(#linear-gradient-4);}.cls-5{fill:url(#linear-gradient-5);}.cls-6{fill:url(#linear-gradient-6);}.cls-7{fill:url(#linear-gradient-7);}.cls-8{fill:url(#linear-gradient-8);}</style><linearGradient id="linear-gradient" x1="183.78" y1="422.77" x2="195.21" y2="422.77" gradientUnits="userSpaceOnUse"><stop offset="0" stop-color="#7e3bb0"/><stop offset="0.99" stop-color="#93278f"/></linearGradient><linearGradient id="linear-gradient-2" x1="71.78" y1="440.65" x2="450.21" y2="81.22" xlink:href="#linear-gradient"/><linearGradient id="linear-gradient-3" x1="143" y1="422.1" x2="153.07" y2="422.1" xlink:href="#linear-gradient"/><linearGradient id="linear-gradient-4" x1="164.01" y1="425.01" x2="174.74" y2="425.01" xlink:href="#linear-gradient"/><linearGradient id="linear-gradient-5" x1="125.8" y1="410.85" x2="134.57" y2="410.85" xlink:href="#linear-gradient"/><linearGradient id="linear-gradient-6" x1="103.42" y1="381.85" x2="110.82" y2="381.85" xlink:href="#linear-gradient"/><linearGradient id="linear-gradient-7" x1="91.85" y1="372.47" x2="99.55" y2="372.47" xlink:href="#linear-gradient"/><linearGradient id="linear-gradient-8" x1="113.94" y1="397.39" x2="121.06" y2="397.39" xlink:href="#linear-gradient"/></defs><path class="cls-1" d="M183.78,422.77c0,2,2.56,3.66,5.72,3.66s5.71-1.64,5.71-3.66-2.55-3.67-5.71-3.67S183.78,420.75,183.78,422.77Z"/><path class="cls-2" d="M261,0C116.85,0,0,116.85,0,261,0,377,75.68,475.13,180.3,509.14l.14,0h4.21a13.51,13.51,0,0,0,11.13-13.25V447c-10.12,1.43-22.11,2.92-27.19,2.68-14.69-.66-28.28-3-35.08-7.07-7.92-4.75-19-13.58-22.28-20.66-4.62-10.05-5.69-15.12-11.15-23.92-4.89-7.88-13.32-16-18.77-19s-10.61-7.08-11.69-9.79,1.36-6.53,6.53-7.35,14.4.82,23.92,5.17c7.2,3.29,15.15,12.62,20.66,20.66,6.52,9.52,15.22,19.31,22.56,23.66s22.56,6.52,37,4.34a66.84,66.84,0,0,0,16.47-5.14,64.91,64.91,0,0,1,17-35.12c-76.85-9.41-119-45.05-119-123.12,0-30.11,10-55,27.12-74.44a62,62,0,0,1-5-17.4c-2.25-16.31.4-26.1,2.65-35.68a130.57,130.57,0,0,1,4.89-16.31s12-1.23,22.22,2.25,19,6.12,31.61,13.66c5.95,3.55,11.94,7.44,16.67,10.58A248.45,248.45,0,0,1,261,126.45a246.41,246.41,0,0,1,65.58,8.46c4.71-3.13,10.66-7,16.57-10.52,12.65-7.54,21.41-10.19,31.61-13.66S397,108.48,397,108.48a130.43,130.43,0,0,1,4.89,16.32c2.25,9.58,4.9,19.36,2.65,35.68a62.18,62.18,0,0,1-4.84,17.08c17.42,19.6,27.63,44.6,27.63,74.75,0,79.23-42.69,114-119,123.18a64.85,64.85,0,0,1,17.92,44.69v75.75a13.51,13.51,0,0,0,11,13.23h4.37C446.3,475.16,522,377,522,261,522,116.85,405.15,0,261,0Z"/><path class="cls-3" d="M143,421.48c-.23,1.8,1.83,3.53,4.61,3.87s5.21-.85,5.43-2.63-1.83-3.54-4.61-3.88S143.24,419.67,143,421.48Z"/><path class="cls-4" d="M164,424.7c-.12,1.9,2.19,3.6,5.16,3.77s5.45-1.24,5.57-3.16-2.19-3.6-5.16-3.77S164.13,422.79,164,424.7Z"/><path class="cls-5" d="M126.12,408.36c-.91,1.46.19,3.76,2.44,5.13s4.8,1.3,5.7-.16-.2-3.76-2.44-5.13S127,406.9,126.12,408.36Z"/><path class="cls-6" d="M104,379c-1.06,1.15-.5,3.38,1.25,5s4,2,5.08.81.49-3.38-1.26-5S105,377.81,104,379Z"/><path class="cls-7" d="M92.05,370.61c-.67,1.34.41,3.25,2.42,4.28s4.2.78,4.88-.56-.4-3.25-2.41-4.28S92.73,369.26,92.05,370.61Z"/><path class="cls-8" d="M114.88,393.72c-1.33.94-1.24,3.35.21,5.38s3.7,2.89,5,1.95,1.22-3.35-.21-5.37S116.21,392.78,114.88,393.72Z"/></svg>