<svg id="Layer_1" data-name="Layer 1" xmlns="http://www.w3.org/2000/svg" xmlns:xlink="http://www.w3.org/1999/xlink" viewBox="0 0 522 522"><defs><style>.cls-1{fill:url(#linear-gradient);}</style><linearGradient id="linear-gradient" x1="-126.36" y1="-98.85" x2="609.17" y2="584.44" gradientUnits="userSpaceOnUse"><stop offset="0" stop-color="#3fa9f5"/><stop offset="0.54" stop-color="#1c4cfb"/><stop offset="1" stop-color="blue"/></linearGradient></defs><path class="cls-1" d="M474.55,0H47.45A47.44,47.44,0,0,0,0,47.45v427.1A47.44,47.44,0,0,0,47.45,522h427.1A47.44,47.44,0,0,0,522,474.55V47.45A47.44,47.44,0,0,0,474.55,0ZM165,427.09H95V201.87h70ZM129.29,169.67a40.8,40.8,0,1,1,40.79-40.81A40.81,40.81,0,0,1,129.29,169.67Zm297.9,257.42H357.24V317.57c0-26.13-.48-59.73-36.38-59.73-36.42,0-42,28.45-42,57.83V427.09H208.89V201.87H276v30.78H277c9.35-17.7,32.18-36.38,66.22-36.38,70.88,0,84,46.65,84,107.3V427.09Z"/></svg>